<svg width="284" height="117" viewBox="0 0 284 117" fill="none" xmlns="http://www.w3.org/2000/svg">
<path d="M18.0375 97.2875C18.1375 97.2875 18.2375 97.3083 18.3375 97.35C18.4375 97.3833 18.5333 97.4458 18.625 97.5375L20.3 99.3C19.5667 100.258 18.6458 100.983 17.5375 101.475C16.4375 101.958 15.1333 102.2 13.625 102.2C12.2417 102.2 11 101.967 9.9 101.5C8.80833 101.025 7.87917 100.375 7.1125 99.55C6.35417 98.7167 5.77083 97.7333 5.3625 96.6C4.95417 95.4583 4.75 94.2208 4.75 92.8875C4.75 91.5292 4.97083 90.2833 5.4125 89.15C5.85417 88.0083 6.475 87.025 7.275 86.2C8.075 85.375 9.03333 84.7333 10.15 84.275C11.2667 83.8167 12.4958 83.5875 13.8375 83.5875C14.5208 83.5875 15.1625 83.65 15.7625 83.775C16.3708 83.8917 16.9375 84.0583 17.4625 84.275C17.9875 84.4833 18.4708 84.7375 18.9125 85.0375C19.3542 85.3375 19.7458 85.6625 20.0875 86.0125L18.6625 87.925C18.5708 88.0417 18.4625 88.15 18.3375 88.25C18.2125 88.3417 18.0375 88.3875 17.8125 88.3875C17.6625 88.3875 17.5208 88.3542 17.3875 88.2875C17.2542 88.2208 17.1125 88.1417 16.9625 88.05C16.8125 87.95 16.6458 87.8458 16.4625 87.7375C16.2875 87.6208 16.075 87.5167 15.825 87.425C15.5833 87.325 15.2958 87.2417 14.9625 87.175C14.6375 87.1083 14.2542 87.075 13.8125 87.075C13.1125 87.075 12.4708 87.2042 11.8875 87.4625C11.3125 87.7208 10.8125 88.1 10.3875 88.6C9.97083 89.0917 9.64583 89.7 9.4125 90.425C9.1875 91.1417 9.075 91.9625 9.075 92.8875C9.075 93.8208 9.2 94.65 9.45 95.375C9.70833 96.1 10.0542 96.7125 10.4875 97.2125C10.9292 97.7042 11.4417 98.0792 12.025 98.3375C12.6083 98.5958 13.2333 98.725 13.9 98.725C14.2833 98.725 14.6333 98.7083 14.95 98.675C15.2667 98.6333 15.5625 98.5708 15.8375 98.4875C16.1125 98.3958 16.3708 98.2792 16.6125 98.1375C16.8542 97.9875 17.1 97.8 17.35 97.575C17.45 97.4917 17.5583 97.425 17.675 97.375C17.7917 97.3167 17.9125 97.2875 18.0375 97.2875ZM36.701 95.0375L35.0135 90.05C34.8885 89.7333 34.7551 89.3625 34.6135 88.9375C34.4718 88.5042 34.3301 88.0375 34.1885 87.5375C34.0635 88.0458 33.9301 88.5167 33.7885 88.95C33.6468 89.3833 33.5135 89.7583 33.3885 90.075L31.7135 95.0375H36.701ZM43.4135 102H40.1385C39.7718 102 39.476 101.917 39.251 101.75C39.026 101.575 38.8551 101.354 38.7385 101.087L37.6635 97.9125H30.7385L29.6635 101.087C29.5718 101.321 29.4051 101.533 29.1635 101.725C28.9301 101.908 28.6385 102 28.2885 102H24.9885L32.0385 83.7875H36.3635L43.4135 102ZM60.7561 98.625V102H49.7811V83.7875H54.0061V98.625H60.7561ZM78.9201 98.625V102H67.9451V83.7875H72.1701V98.625H78.9201ZM106.452 95.0375L104.764 90.05C104.639 89.7333 104.506 89.3625 104.364 88.9375C104.223 88.5042 104.081 88.0375 103.939 87.5375C103.814 88.0458 103.681 88.5167 103.539 88.95C103.398 89.3833 103.264 89.7583 103.139 90.075L101.464 95.0375H106.452ZM113.164 102H109.889C109.523 102 109.227 101.917 109.002 101.75C108.777 101.575 108.606 101.354 108.489 101.087L107.414 97.9125H100.489L99.4145 101.087C99.3228 101.321 99.1561 101.533 98.9145 101.725C98.6811 101.908 98.3895 102 98.0395 102H94.7395L101.789 83.7875H106.114L113.164 102ZM135.432 83.7875V102H133.232C132.907 102 132.632 101.95 132.407 101.85C132.19 101.742 131.974 101.558 131.757 101.3L123.17 90.4375C123.203 90.7625 123.224 91.0792 123.232 91.3875C123.249 91.6875 123.257 91.9708 123.257 92.2375V102H119.532V83.7875H121.757C121.94 83.7875 122.095 83.7958 122.22 83.8125C122.345 83.8292 122.457 83.8625 122.557 83.9125C122.657 83.9542 122.753 84.0167 122.845 84.1C122.936 84.1833 123.04 84.2958 123.157 84.4375L131.82 95.375C131.778 95.025 131.749 94.6875 131.732 94.3625C131.715 94.0292 131.707 93.7167 131.707 93.425V83.7875H135.432ZM161.277 92.8875C161.277 94.2042 161.048 95.4208 160.589 96.5375C160.139 97.6458 159.502 98.6083 158.677 99.425C157.852 100.233 156.856 100.867 155.689 101.325C154.531 101.775 153.243 102 151.827 102H144.752V83.7875H151.827C153.243 83.7875 154.531 84.0167 155.689 84.475C156.856 84.9333 157.852 85.5667 158.677 86.375C159.502 87.1833 160.139 88.1458 160.589 89.2625C161.048 90.3708 161.277 91.5792 161.277 92.8875ZM156.952 92.8875C156.952 91.9875 156.835 91.175 156.602 90.45C156.368 89.725 156.031 89.1125 155.589 88.6125C155.156 88.1042 154.623 87.7167 153.989 87.45C153.356 87.175 152.635 87.0375 151.827 87.0375H149.002V98.75H151.827C152.635 98.75 153.356 98.6167 153.989 98.35C154.623 98.075 155.156 97.6875 155.589 97.1875C156.031 96.6792 156.368 96.0625 156.602 95.3375C156.835 94.6125 156.952 93.7958 156.952 92.8875ZM187.054 92.35C187.629 92.35 188.116 92.2792 188.516 92.1375C188.925 91.9875 189.258 91.7833 189.516 91.525C189.775 91.2667 189.962 90.9667 190.079 90.625C190.195 90.275 190.254 89.9 190.254 89.5C190.254 88.7 189.991 88.075 189.466 87.625C188.95 87.175 188.145 86.95 187.054 86.95H185.354V92.35H187.054ZM196.029 102H192.204C191.495 102 190.987 101.733 190.679 101.2L187.654 95.9125C187.512 95.6875 187.354 95.525 187.179 95.425C187.004 95.3167 186.754 95.2625 186.429 95.2625H185.354V102H181.129V83.7875H187.054C188.37 83.7875 189.491 83.925 190.416 84.2C191.35 84.4667 192.108 84.8417 192.691 85.325C193.283 85.8083 193.712 86.3792 193.979 87.0375C194.245 87.6958 194.379 88.4125 194.379 89.1875C194.379 89.7792 194.3 90.3375 194.141 90.8625C193.983 91.3875 193.75 91.875 193.441 92.325C193.133 92.7667 192.75 93.1625 192.291 93.5125C191.841 93.8625 191.32 94.15 190.729 94.375C191.004 94.5167 191.262 94.6958 191.504 94.9125C191.745 95.1208 191.962 95.3708 192.154 95.6625L196.029 102ZM207.596 87.0375V91.2875H213.321V94.4125H207.596V98.75H215.071V102H203.346V83.7875H215.071V87.0375H207.596ZM234.438 98.625V102H223.463V83.7875H227.688V98.625H234.438ZM245.877 87.0375V91.2875H251.602V94.4125H245.877V98.75H253.352V102H241.627V83.7875H253.352V87.0375H245.877ZM277.369 102H273.144C272.869 102 272.644 101.933 272.469 101.8C272.302 101.667 272.169 101.508 272.069 101.325L268.419 94.95C268.352 95.1333 268.277 95.2917 268.194 95.425L264.794 101.325C264.677 101.492 264.54 101.646 264.381 101.787C264.223 101.929 264.019 102 263.769 102H259.819L265.681 92.625L260.044 83.7875H264.269C264.544 83.7875 264.744 83.825 264.869 83.9C265.002 83.9667 265.119 84.0833 265.219 84.25L268.844 90.3875C268.886 90.2792 268.931 90.175 268.981 90.075C269.04 89.975 269.102 89.8708 269.169 89.7625L272.344 84.3125C272.461 84.1292 272.581 83.9958 272.706 83.9125C272.84 83.8292 273.002 83.7875 273.194 83.7875H277.244L271.531 92.45L277.369 102Z" fill="white"/>
<path d="M40.428 57.428C40.716 57.428 41.004 57.488 41.292 57.608C41.58 57.704 41.856 57.884 42.12 58.148L46.944 63.224C44.832 65.984 42.18 68.072 38.988 69.488C35.82 70.88 32.064 71.576 27.72 71.576C23.736 71.576 20.16 70.904 16.992 69.56C13.848 68.192 11.172 66.32 8.964 63.944C6.78 61.544 5.1 58.712 3.924 55.448C2.748 52.16 2.16 48.596 2.16 44.756C2.16 40.844 2.796 37.256 4.068 33.992C5.34 30.704 7.128 27.872 9.432 25.496C11.736 23.12 14.496 21.272 17.712 19.952C20.928 18.632 24.468 17.972 28.332 17.972C30.3 17.972 32.148 18.152 33.876 18.512C35.628 18.848 37.26 19.328 38.772 19.952C40.284 20.552 41.676 21.284 42.948 22.148C44.22 23.012 45.348 23.948 46.332 24.956L42.228 30.464C41.964 30.8 41.652 31.112 41.292 31.4C40.932 31.664 40.428 31.796 39.78 31.796C39.348 31.796 38.94 31.7 38.556 31.508C38.172 31.316 37.764 31.088 37.332 30.824C36.9 30.536 36.42 30.236 35.892 29.924C35.388 29.588 34.776 29.288 34.056 29.024C33.36 28.736 32.532 28.496 31.572 28.304C30.636 28.112 29.532 28.016 28.26 28.016C26.244 28.016 24.396 28.388 22.716 29.132C21.06 29.876 19.62 30.968 18.396 32.408C17.196 33.824 16.26 35.576 15.588 37.664C14.94 39.728 14.616 42.092 14.616 44.756C14.616 47.444 14.976 49.832 15.696 51.92C16.44 54.008 17.436 55.772 18.684 57.212C19.956 58.628 21.432 59.708 23.112 60.452C24.792 61.196 26.592 61.568 28.512 61.568C29.616 61.568 30.624 61.52 31.536 61.424C32.448 61.304 33.3 61.124 34.092 60.884C34.884 60.62 35.628 60.284 36.324 59.876C37.02 59.444 37.728 58.904 38.448 58.256C38.736 58.016 39.048 57.824 39.384 57.68C39.72 57.512 40.068 57.428 40.428 57.428ZM70.2197 55.808C67.9877 55.904 66.1517 56.096 64.7117 56.384C63.2717 56.672 62.1317 57.032 61.2917 57.464C60.4517 57.896 59.8637 58.388 59.5277 58.94C59.2157 59.492 59.0597 60.092 59.0597 60.74C59.0597 62.012 59.4077 62.912 60.1037 63.44C60.7997 63.944 61.8197 64.196 63.1637 64.196C64.6037 64.196 65.8637 63.944 66.9437 63.44C68.0237 62.936 69.1157 62.12 70.2197 60.992V55.808ZM50.1317 38.852C52.3877 36.86 54.8837 35.384 57.6197 34.424C60.3797 33.44 63.3317 32.948 66.4757 32.948C68.7317 32.948 70.7597 33.32 72.5597 34.064C74.3837 34.784 75.9197 35.804 77.1677 37.124C78.4397 38.42 79.4117 39.968 80.0837 41.768C80.7557 43.568 81.0917 45.536 81.0917 47.672V71H75.9797C74.9237 71 74.1197 70.856 73.5677 70.568C73.0397 70.28 72.5957 69.68 72.2357 68.768L71.4437 66.716C70.5077 67.508 69.6077 68.204 68.7437 68.804C67.8797 69.404 66.9797 69.92 66.0437 70.352C65.1317 70.76 64.1477 71.06 63.0917 71.252C62.0597 71.468 60.9077 71.576 59.6357 71.576C57.9317 71.576 56.3837 71.36 54.9917 70.928C53.5997 70.472 52.4117 69.812 51.4277 68.948C50.4677 68.084 49.7237 67.016 49.1957 65.744C48.6677 64.448 48.4037 62.96 48.4037 61.28C48.4037 59.936 48.7397 58.58 49.4117 57.212C50.0837 55.82 51.2477 54.56 52.9037 53.432C54.5597 52.28 56.7917 51.32 59.5997 50.552C62.4077 49.784 65.9477 49.352 70.2197 49.256V47.672C70.2197 45.488 69.7637 43.916 68.8517 42.956C67.9637 41.972 66.6917 41.48 65.0357 41.48C63.7157 41.48 62.6357 41.624 61.7957 41.912C60.9557 42.2 60.1997 42.524 59.5277 42.884C58.8797 43.244 58.2437 43.568 57.6197 43.856C56.9957 44.144 56.2517 44.288 55.3877 44.288C54.6197 44.288 53.9717 44.096 53.4437 43.712C52.9157 43.328 52.4837 42.872 52.1477 42.344L50.1317 38.852ZM99.3853 60.848C100.225 61.76 101.137 62.408 102.121 62.792C103.105 63.176 104.101 63.368 105.109 63.368C106.165 63.368 107.137 63.176 108.025 62.792C108.913 62.384 109.669 61.736 110.293 60.848C110.941 59.936 111.445 58.748 111.805 57.284C112.165 55.796 112.345 53.972 112.345 51.812C112.345 49.94 112.201 48.356 111.913 47.06C111.649 45.74 111.241 44.672 110.689 43.856C110.161 43.016 109.489 42.416 108.673 42.056C107.881 41.672 106.969 41.48 105.937 41.48C104.569 41.48 103.381 41.78 102.373 42.38C101.365 42.98 100.369 43.856 99.3853 45.008V60.848ZM99.3853 37.628C100.825 36.26 102.397 35.168 104.101 34.352C105.829 33.512 107.749 33.092 109.861 33.092C111.973 33.092 113.893 33.524 115.621 34.388C117.349 35.252 118.825 36.488 120.049 38.096C121.273 39.68 122.209 41.6 122.857 43.856C123.529 46.112 123.865 48.632 123.865 51.416C123.865 54.44 123.481 57.188 122.713 59.66C121.945 62.132 120.853 64.256 119.437 66.032C118.045 67.784 116.377 69.152 114.433 70.136C112.489 71.096 110.341 71.576 107.989 71.576C106.861 71.576 105.853 71.468 104.965 71.252C104.077 71.036 103.261 70.736 102.517 70.352C101.773 69.944 101.089 69.464 100.465 68.912C99.8653 68.36 99.2773 67.76 98.7013 67.112L98.3053 68.984C98.1133 69.752 97.8013 70.28 97.3693 70.568C96.9373 70.856 96.3613 71 95.6413 71H88.2253V17.108H99.3853V37.628Z" fill="white"/>
<path d="M176.657 18.548V71H164.417V48.824H143.105V71H130.865V18.548H143.105V40.472H164.417V18.548H176.657ZM208.722 61.388C210.354 61.388 211.806 61.124 213.078 60.596C214.374 60.044 215.466 59.264 216.354 58.256C217.242 57.248 217.914 56.024 218.37 54.584C218.85 53.12 219.09 51.464 219.09 49.616V18.548H231.258V49.616C231.258 52.832 230.73 55.784 229.674 58.472C228.642 61.16 227.154 63.476 225.21 65.42C223.266 67.364 220.902 68.876 218.118 69.956C215.334 71.036 212.202 71.576 208.722 71.576C205.218 71.576 202.074 71.036 199.29 69.956C196.506 68.876 194.142 67.364 192.198 65.42C190.254 63.476 188.766 61.16 187.734 58.472C186.702 55.784 186.186 52.832 186.186 49.616V18.548H198.354V49.58C198.354 51.428 198.582 53.084 199.038 54.548C199.518 55.988 200.202 57.224 201.09 58.256C201.978 59.264 203.058 60.044 204.33 60.596C205.626 61.124 207.09 61.388 208.722 61.388ZM261.5 61.82C263.108 61.82 264.416 61.616 265.424 61.208C266.456 60.8 267.26 60.272 267.836 59.624C268.412 58.976 268.808 58.244 269.024 57.428C269.24 56.612 269.348 55.784 269.348 54.944C269.348 53.984 269.216 53.12 268.952 52.352C268.712 51.584 268.28 50.936 267.656 50.408C267.056 49.88 266.252 49.472 265.244 49.184C264.236 48.896 262.964 48.752 261.428 48.752H252.932V61.82H261.5ZM252.932 27.656V40.616H259.268C260.612 40.616 261.824 40.52 262.904 40.328C263.984 40.136 264.896 39.8 265.64 39.32C266.408 38.84 266.984 38.18 267.368 37.34C267.776 36.5 267.98 35.444 267.98 34.172C267.98 32.924 267.824 31.892 267.512 31.076C267.2 30.236 266.72 29.564 266.072 29.06C265.424 28.556 264.596 28.196 263.588 27.98C262.604 27.764 261.428 27.656 260.06 27.656H252.932ZM260.06 18.548C263.684 18.548 266.768 18.884 269.312 19.556C271.856 20.228 273.932 21.176 275.539 22.4C277.148 23.624 278.312 25.112 279.032 26.864C279.776 28.616 280.148 30.572 280.148 32.732C280.148 33.908 279.98 35.048 279.644 36.152C279.308 37.232 278.78 38.252 278.06 39.212C277.34 40.148 276.416 41.012 275.288 41.804C274.16 42.596 272.804 43.28 271.22 43.856C274.676 44.696 277.232 46.052 278.888 47.924C280.544 49.796 281.372 52.22 281.372 55.196C281.372 57.428 280.94 59.504 280.076 61.424C279.212 63.344 277.94 65.024 276.26 66.464C274.604 67.88 272.552 68.996 270.104 69.812C267.656 70.604 264.86 71 261.716 71H240.764V18.548H260.06Z" fill="#FFC71A"/>
</svg>
